# AST/ASF file generated using VICON BodyLanguage
# -----------------------------------------------
:version 1.10
:name VICON
:units
  mass 1.0
  length 0.45
  angle deg
:documentation
   .ast/.asf automatically generated from VICON data using
   VICON BodyBuilder and BodyLanguage model FoxedUp or BRILLIANT.MOD
:root
   order TX TY TZ RX RY RZ
   axis XYZ
   position 0 0 0  
   orientation 0 0 0 
:bonedata
  begin
     id 1 
     name lhipjoint
     direction 0.662698 -0.695252 0.27831 
     length 2.53073 
     axis 0 0 0  XYZ
  end
  begin
     id 2 
     name lfemur
     direction 0.34202 -0.939693 0  
     length 7.16147  
     axis 0 0 20  XYZ
    dof rx ry rz
    limits (-160.0 20.0)
           (-70.0 70.0)
           (-60.0 70.0)
  end
  begin
     id 3 
     name ltibia
     direction 0.34202 -0.939693 0   
     length 7.63967   
     axis 0 0 20   XYZ
    dof rx
    limits (-10.0 170.0)
  end
  begin
     id 4 
     name lfoot
     direction 0.0938457 -0.257721 0.961651   
     length 1.89793   
     axis -90 7.62852e-016 20   XYZ
    dof rx rz
    limits (-45.0 90.0)
           (-70.0 20.0)
  end
  begin
     id 5 
     name ltoes
     direction -0.00116841 -0.0030592 0.999995   
     length 0.955649   
     axis -90 7.62852e-016 20   XYZ
    dof rx
    limits (-90.0 20.0)
  end
  begin
     id 6 
     name rhipjoint
     direction -0.649445 -0.705948 0.282592   
     length 2.49238  
     axis 0 0 0  XYZ 
  end
  begin
     id 7 
     name rfemur
     direction -0.34202 -0.939693 0   
     length 6.90728   
     axis 0 0 -20   XYZ
    dof rx ry rz
    limits (-160.0 20.0)
           (-70.0 70.0)
           (-70.0 60.0)
  end
  begin
     id 8 
     name rtibia
     direction -0.34202 -0.939693 0   
     length 7.72868   
     axis 0 0 -20   XYZ
    dof rx
    limits (-10.0 170.0)
 end
 begin
     id 9 
     name rfoot
     direction -0.0920068 -0.252865 0.963117   
     length 1.97476  
     axis -90 -7.62852e-016 -20   XYZ
    dof rx rz
    limits (-45.0 90.0)
           (-20.0 70.0)
  end
  begin
     id 10 
     name rtoes
     direction 0.000391322 0.00230649 0.999997   
     length 0.992641   
     axis -90 -7.62852e-016 -20   XYZ
    dof rx
    limits (-90.0 20.0)
  end
  begin
     id 11 
     name lowerback
     direction -0.00875327 0.998321 -0.0572635   
     length 2.20024   
     axis 0 0 0   XYZ
    dof rx ry rz
    limits (-20.0 45.0)
           (-30.0 30.0)
           (-30.0 30.0)
  end
  begin
     id 12 
     name upperback
     direction 0.00753931 0.999972 -0.000360425   
     length 2.20538   
     axis 0 0 0   XYZ
    dof rx ry rz
    limits (-20.0 45.0)
           (-30.0 30.0)
           (-30.0 30.0)
  end
  begin
     id 13 
     name thorax
     direction 0.0117767 0.999601 0.0256663   
     length 2.21508   
     axis 0 0 0   XYZ
    dof rx ry rz
    limits (-20.0 45.0)
           (-30.0 30.0)
           (-30.0 30.0)
  end
  begin
     id 14 
     name lowerneck
     direction 0.060228 0.994909 0.0807986   
     length 1.7607   
     axis 0 0 0   XYZ
    dof rx ry rz
    limits (-20.0 45.0)
           (-30.0 30.0)
           (-30.0 30.0)
  end
  begin
     id 15 
     name upperneck
     direction -0.0563647 0.959594 -0.275685   
     length 1.75612   
     axis 0 0 0   XYZ
    dof rx ry rz
    limits (-20.0 45.0)
           (-30.0 30.0)
           (-30.0 30.0)
  end
  begin
     id 16
     name head
     direction -0.0161544 0.99458 -0.102714  
     length 1.79288  
     axis 0 0 0   XYZ
    dof rx ry rz
    limits (-20.0 45.0)
           (-30.0 30.0)
           (-30.0 30.0)
  end
  begin
     id 17 
     name lclavicle
     direction 0.93913 0.332189 -0.087669  
     length 3.52087  
     axis 0 0 0   XYZ
    dof ry rz
    limits (-20.0 10.0)
           (0.0 20.0)
  end
  begin
     id 18 
     name lhumerus
     direction 1 -4.48974e-011 -2.70836e-027   
     length 5.35289   
     axis -180 -30 -90   XYZ
    dof rx ry rz
    limits (-60.0 90.0)
           (-90.0 90.0)
           (-90.0 90.0)
  end
  begin
     id 19
     name lradius
     direction 1 -4.48961e-011 -9.76021e-027   
     length 3.27727   
     axis -180 -30 -90   XYZ
    dof rx
    limits (-10.0 170.0)
  end
  begin
     id 20
     name lwrist
     direction 1 -4.49103e-011 -2.23668e-026   
     length 1.63864   
     axis 1.44924e-014 90 90   XYZ
    dof ry
    limits (-180.0 0.0)
 end
  begin
     id 21 
     name lhand
     direction 1 3.0697e-005 0.000161777   
     length 0.54443   
     axis 2.85318e-014 90 90   XYZ
    dof rx rz
    limits (-90.0 90.0)
           (-45.0 45.0)
  end
  begin
     id 22 
     name lfingers
     direction 1 -4.49027e-011 -8.9447e-026   
     length 0.438912   
     axis 5.70628e-014 90 90   XYZ
    dof rx
    limits (0.0 90.0)
  end
  begin
     id 23
     name lthumb
     direction 0.707058 2.6516e-005 0.707156   
     length 0.630274   
     axis -90 45 -3.53137e-014   XYZ
    dof rx rz
    limits (-45.0 45.0)
           (-45.0 45.0)
  end
  begin
     id 24 
     name rclavicle
     direction -0.95274 0.284984 -0.105215   
     length 3.43401  
     axis 0 0 0   XYZ 
    dof ry rz
    limits (-10.0 20.0)
           (-20.0 0.0)
  end
  begin
     id 25 
     name rhumerus
     direction -0.999999 -0.000575019 -0.00106829  
     length 5.52077   
     axis -180 30 90   XYZ
    dof rx ry rz
    limits (-90.0 60.0)
           (-90.0 90.0)
           (-90.0 90.0)
  end
  begin
     id 26 
     name rradius
     direction -1 -4.4879e-011 -6.35415e-027   
     length 3.32364   
     axis -180 30 90   XYZ
    dof rx
    limits (-10.0 170.0)
  end
  begin
     id 27 
     name rwrist
     direction -1 -4.49048e-011 -9.98542e-027   
     length 1.66182   
     axis 6.32482e-015 -90 -90   XYZ
    dof ry
    limits (-180.0 0.0)
  end
  begin
     id 28
     name rhand
     direction -1 -4.48978e-011 -1.99771e-026   
     length 0.732235   
     axis 1.27479e-014 -90 -90   XYZ
    dof rx rz
    limits (-90.0 90.0)
           (-45.0 45.0)
  end
  begin
     id 29
     name rfingers
     direction -1 -4.49144e-011 -3.99245e-026   
     length 0.590347   
     axis 2.5496e-014 -90 -90   XYZ
    dof rx
    limits (0.0 90.0)
  end
  begin
     id 30
     name rthumb
     direction -0.707107 -6.35121e-011 0.707107   
     length 0.847624   
     axis -90 -45 -2.82974e-014   XYZ
    dof rx rz
    limits (-45.0 45.0)
           (-45.0 45.0)
  end
:hierarchy
  begin
    root lhipjoint rhipjoint lowerback
    lhipjoint lfemur
    lfemur ltibia
    ltibia lfoot
    lfoot ltoes
    rhipjoint rfemur
    rfemur rtibia
    rtibia rfoot
    rfoot rtoes
    lowerback upperback
    upperback thorax
    thorax lowerneck lclavicle rclavicle
    lowerneck upperneck
    upperneck head
    lclavicle lhumerus
    lhumerus lradius
    lradius lwrist
    lwrist lhand lthumb
    lhand lfingers
    rclavicle rhumerus
    rhumerus rradius
    rradius rwrist
    rwrist rhand rthumb
    rhand rfingers
  end

#!OML:ASF G:\Work\Work\Patient Classification 1\Elijah\terrain1\Elijah.ASF
:FULLY-SPECIFIED
:DEGREES
249
root 15.4146 19.8889 11.3666 9.44212 -1.10858 -4.8127
lowerback 8.2585 1.76908 4.98202
upperback 0.560133 2.76854 -1.06805
thorax -3.75916 1.28329 -4.22252
lowerneck -19.9458 10.2962 9.95907
upperneck 13.1688 14.5688 -16.8137
head 9.5191 5.76931 -5.20255
rclavicle 1.81888e-014 -9.14409e-015
rhumerus -45.5835 12.1032 -93.3535
rradius 71.8937
rwrist -9.36405
rhand -12.3438 19.5607
rfingers 7.12502
rthumb 13.7257 -9.96666
lclavicle 1.81888e-014 -9.14409e-015
lhumerus -41.5487 13.8049 76.0302
lradius 29.8147
lwrist 0.755882
lhand -16.5672 23.9199
lfingers 7.12502
lthumb 9.65291 53.6788
rfemur -1.93099 3.55603 30.2307
rtibia 16.577
rfoot 11.0184 -19.1554
rtoes -20.2344
lfemur -65.3342 2.3353 -14.9747
ltibia 56.7397
lfoot -5.8227 -14.4399
ltoes -10.2456
250
root 15.4359 19.9072 11.4985 9.65302 -1.19003 -4.74477
lowerback 7.81438 1.71533 4.89637
upperback 0.708189 2.66273 -1.09437
thorax -3.37025 1.24736 -4.16681
lowerneck -19.1731 10.0294 10.7628
upperneck 12.2488 14.0857 -17.7666
head 9.15106 5.57708 -5.76684
rclavicle -4.87022e-015 -3.57812e-015
rhumerus -45.203 12.3385 -93.3366
rradius 71.7916
rwrist -9.43809
rhand -11.771 18.7242
rfingers 7.12502
rthumb 14.2776 -10.765
lclavicle -4.87022e-015 -3.57812e-015
lhumerus -41.2893 13.9673 76.0017
lradius 29.784
lwrist 1.15427
lhand -16.6526 23.9055
lfingers 7.12502
lthumb 9.57056 53.6682
rfemur -1.31897 3.30237 30.0476
rtibia 15.8442
rfoot 11.0184 -19.1554
rtoes -20.2344
lfemur -64.795 2.05183 -14.9494
ltibia 55.5415
lfoot -5.63038 -13.5226
ltoes -13.273
251
root 15.4494 19.9162 11.636 9.79582 -1.38728 -5.02165
lowerback 7.54182 1.71445 5.02623
upperback 0.741546 2.66126 -1.0043
thorax -3.18172 1.25196 -4.13286
lowerneck -18.394 9.99861 11.0784
upperneck 11.2988 14.0392 -18.606
head 8.79348 5.57835 -6.12872
rclavicle -2.41523e-014 8.34896e-015
rhumerus -45.0187 12.5132 -93.3258
rradius 71.6827
rwrist -9.44853
rhand -11.3547 18.4052
rfingers 7.12502
rthumb 14.6788 -11.0552
lclavicle -2.41523e-014 8.34896e-015
lhumerus -41.2288 14.1687 75.876
lradius 29.6646
lwrist 1.27964
lhand -16.5918 23.7168
lfingers 7.12502
lthumb 9.62922 53.4767
rfemur -0.649011 3.31328 30.2528
rtibia 15.1252
rfoot 11.0184 -19.1554
rtoes -20.2344
lfemur -64.4396 2.11186 -14.6657
ltibia 55.0617
lfoot -3.74848 -12.1907
ltoes -14.8967
252
root 15.4686 19.9323 11.7861 10.1276 -1.62353 -5.23254
lowerback 6.83243 1.76325 5.22421
upperback 0.760956 2.70337 -1.02688
thorax -2.75014 1.28484 -4.23962
lowerneck -18.2938 11.1612 12.228
upperneck 12.4901 15.6265 -18.7504
head 9.54273 6.3151 -6.09509
rclavicle -1.2921e-014 9.14409e-015
rhumerus -44.9713 12.555 -93.4135
rradius 71.674
rwrist -9.09567
rhand -11.2652 18.3466
rfingers 7.12502
rthumb 14.765 -11.1075
lclavicle -1.2921e-014 9.14409e-015
lhumerus -41.3592 14.2196 75.6378
lradius 29.8859
lwrist 1.13131
lhand -16.3199 24.2191
lfingers 7.12502
lthumb 9.8915 53.9667
rfemur -0.127427 2.94124 30.2548
rtibia 14.4443
rfoot 11.0184 -19.1554
rtoes -20.2344
lfemur -64.4619 2.26955 -14.545
ltibia 55.4301
lfoot -1.96304 -12.02
ltoes -12.6328
253
root 15.4751 19.9387 11.8964 10.3664 -1.88366 -5.57316
lowerback 6.77297 1.83073 5.43536
upperback 0.701291 2.80644 -1.04803
thorax -2.75629 1.33233 -4.38775
lowerneck -18.2938 11.1612 12.228
upperneck 12.4901 15.6265 -18.7504
head 9.54273 6.3151 -6.09509
rclavicle -9.93923e-015 2.54444e-014
rhumerus -44.9204 12.4398 -93.5424
rradius 71.678
rwrist -8.78178
rhand -11.0185 18.1353
rfingers 7.12502
rthumb 15.0027 -11.3012
lclavicle -9.93923e-015 2.54444e-014
lhumerus -41.6733 13.8279 75.5662
lradius 30.7666
lwrist 1.28059
lhand -16.2745 25.0643
lfingers 7.12502
lthumb 9.93531 54.8098
rfemur 0.210924 3.27098 30.5726
rtibia 14.0794
rfoot 11.0184 -19.1554
rtoes -20.2344
lfemur -64.6883 2.47959 -14.1397
ltibia 56.44
lfoot -2.78886 -12.6391
ltoes -10.3557
254
root 15.4877 19.9374 12.037 10.4876 -2.19768 -5.79732
lowerback 6.60418 1.88735 5.52336
upperback 0.705984 2.87821 -1.05932
thorax -2.64386 1.37099 -4.44662
lowerneck -18.2938 11.1612 12.228
upperneck 12.4901 15.6265 -18.7504
head 9.54273 6.3151 -6.09509
rclavicle 1.96797e-014 1.59028e-015
rhumerus -44.8831 12.4599 -93.6495
rradius 71.6326
rwrist -8.89476
rhand -10.8006 18.1739
rfingers 7.12502
rthumb 15.2126 -11.2468
lclavicle 1.96797e-014 1.59028e-015
lhumerus -41.8783 13.7532 75.433
lradius 31.296
lwrist 1.42218
lhand -16.4332 25.2535
lfingers 7.12502
lthumb 9.78223 55.0062
rfemur 0.58343 3.46657 30.686
rtibia 14.1466
rfoot 11.0184 -19.1554
rtoes -20.2344
lfemur -64.821 2.61274 -13.8542
ltibia 57.8565
lfoot -4.84202 -13.231
ltoes -11.0849
255
root 15.5027 19.928 12.1743 10.6515 -2.46275 -5.85608
lowerback 6.66913 1.94824 5.45608
upperback 0.497135 2.96143 -1.12196
thorax -2.88768 1.40018 -4.48976
lowerneck -18.2938 11.1612 12.228
upperneck 12.4901 15.6265 -18.7504
head 9.54273 6.3151 -6.09509
rclavicle 9.54166e-015 -5.56597e-015
rhumerus -45.1824 12.3949 -93.8314
rradius 71.6489
rwrist -9.19995
rhand -10.5777 18.0336
rfingers 7.12502
rthumb 15.4273 -11.3707
lclavicle 9.54166e-015 -5.56597e-015
lhumerus -42.1425 13.8346 75.0631
lradius 31.3099
lwrist 1.20264
lhand -16.35 25.4948
lfingers 7.12502
lthumb 9.86248 55.2438
rfemur 0.65407 3.7209 30.608
rtibia 14.5945
rfoot -12.091 -1.28051
rtoes -9.3722
lfemur -65.0664 2.65321 -13.7533
ltibia 59.2842
lfoot -5.72124 -13.4109
ltoes -9.21257
256
root 15.5213 19.9222 12.2873 10.7334 -2.25212 -5.90314
lowerback 7.22461 1.77629 5.50723
upperback 0.341267 2.77037 -1.16269
thorax -3.37905 1.2838 -4.57625
lowerneck -18.2938 11.1612 12.228
upperneck 12.4901 15.6265 -18.7504
head 9.54273 6.3151 -6.09509
rclavicle -4.21423e-014 1.11319e-014
rhumerus -45.1483 12.4636 -93.9846
rradius 71.5534
rwrist -9.19524
rhand -10.4373 17.777
rfingers 7.12502
rthumb 15.5625 -11.6169
lclavicle -4.21423e-014 1.11319e-014
lhumerus -42.1623 13.9343 74.731
lradius 31.2484
lwrist 0.920982
lhand -16.066 25.5434
lfingers 7.12502
lthumb 10.1365 55.2793
rfemur 0.62244 3.59948 30.5944
rtibia 15.1372
rfoot -11.3521 -1.13933
rtoes -10.741
lfemur -65.2855 2.26082 -13.637
ltibia 60.493
lfoot -6.13172 -13.292
ltoes -7.32246
257
root 15.5436 19.9343 12.4132 10.8229 -2.13613 -5.9141
lowerback 7.40715 1.68398 5.59884
upperback 0.350378 2.66345 -1.21143
thorax -3.47813 1.22561 -4.67747
lowerneck -18.2938 11.1612 12.228
upperneck 12.4901 15.6265 -18.7504
head 9.54273 6.3151 -6.09509
rclavicle -2.00773e-014 0
rhumerus -44.9217 12.4312 -93.9612
rradius 71.3766
rwrist -9.04854
rhand -10.4747 17.8119
rfingers 7.12502
rthumb 15.5265 -11.5847
lclavicle -2.00773e-014 0
lhumerus -41.8838 13.8579 74.6235
lradius 30.9541
lwrist 0.718819
lhand -16.1642 25.135
lfingers 7.12502
lthumb 10.0417 54.8754
rfemur 0.569191 3.28559 30.4465
rtibia 15.7443
rfoot -10.954 -0.744252
rtoes -11.2923
lfemur -65.2927 1.75096 -13.4866
ltibia 61.3409
lfoot -7.16887 -12.8818
ltoes -8.91209
258
root 15.5581 19.9578 12.5584 11.0246 -2.46744 -5.7354
lowerback 7.15247 1.73882 5.20992
upperback 0.508292 2.68306 -1.31014
thorax -3.18116 1.2542 -4.54689
lowerneck -18.2938 11.1612 12.228
upperneck 12.4901 15.6265 -18.7504
head 9.54273 6.3151 -6.09509
rclavicle 3.53837e-014 6.36111e-015
rhumerus -44.4768 12.3944 -93.9263
rradius 71.0677
rwrist -9.05033
rhand -10.5685 18.3058
rfingers 7.12502
rthumb 15.4362 -11.0978
lclavicle 3.53837e-014 6.36111e-015
lhumerus -41.4519 14.0714 74.5216
lradius 30.9409
lwrist 0.517619
lhand -16.4032 25.4702
lfingers 7.12502
lthumb 9.81122 55.2217
rfemur 0.567653 3.36153 30.0407
rtibia 16.2193
rfoot -10.0971 -0.389098
rtoes -11.3692
lfemur -65.1642 1.5113 -13.5007
ltibia 61.8223
lfoot -8.58901 -12.2249
ltoes -11.4184
259
root 15.5692 19.9809 12.6944 11.022 -2.58296 -5.55098
lowerback 7.40847 1.809 4.92572
upperback 0.270089 2.76515 -1.4678
thorax -3.56867 1.2806 -4.57751
lowerneck -18.2938 11.1612 12.228
upperneck 12.4901 15.6265 -18.7504
head 9.54273 6.3151 -6.09509
rclavicle -1.19271e-014 5.56597e-015
rhumerus -45.0206 11.8006 -94.0467
rradius 71.0068
rwrist -9.01658
rhand -10.7381 18.5629
rfingers 7.12502
rthumb 15.2727 -10.8532
lclavicle -1.19271e-014 5.56597e-015
lhumerus -41.8521 13.8052 74.2278
lradius 31.2568
lwrist 0.300972
lhand -16.2036 26.2243
lfingers 7.12502
lthumb 10.0037 55.9665
rfemur 0.86016 3.56536 29.7704
rtibia 16.5089
rfoot -9.33918 -0.440298
rtoes -11.383
lfemur -64.7915 1.20958 -13.5698
ltibia 62.0355
lfoot -8.7307 -11.5236
ltoes -11.5425
